<svg width="196" height="24" viewBox="0 0 196 24" fill="none" xmlns="http://www.w3.org/2000/svg">
<path d="M13.813 1.846C13.855 2.084 13.883 2.252 13.897 2.35C13.925 2.434 13.939 2.553 13.939 2.707C13.939 3.169 13.834 3.603 13.624 4.009C13.428 4.401 13.155 4.681 12.805 4.849C12.525 4.471 12.182 4.149 11.776 3.883C11.37 3.603 10.922 3.379 10.432 3.211C9.956 3.029 9.459 2.896 8.941 2.812C8.423 2.728 7.919 2.686 7.429 2.686C6.939 2.686 6.477 2.728 6.043 2.812C5.623 2.882 5.245 2.987 4.909 3.127C4.587 3.253 4.328 3.414 4.132 3.61C3.95 3.806 3.859 4.03 3.859 4.282C3.901 4.59 4.09 4.905 4.426 5.227C4.762 5.535 5.175 5.843 5.665 6.151C6.155 6.445 6.694 6.739 7.282 7.033C7.884 7.327 8.472 7.607 9.046 7.873C9.76 8.209 10.376 8.524 10.894 8.818C11.412 9.098 11.839 9.413 12.175 9.763C12.511 10.099 12.763 10.484 12.931 10.918C13.099 11.352 13.183 11.877 13.183 12.493C13.183 13.207 13.064 13.879 12.826 14.509C12.588 15.125 12.238 15.664 11.776 16.126C11.328 16.588 10.782 16.945 10.138 17.197C9.494 17.463 8.773 17.596 7.975 17.596C7.191 17.596 6.344 17.477 5.434 17.239C4.524 17.001 3.67 16.672 2.872 16.252C2.088 15.846 1.43 15.377 0.898 14.845C0.38 14.299 0.121 13.725 0.121 13.123C0.121 12.843 0.198 12.486 0.352 12.052C0.52 11.618 0.814 11.163 1.234 10.687C1.276 11.107 1.5 11.604 1.906 12.178C2.326 12.752 2.949 13.284 3.775 13.774C4.545 14.222 5.336 14.551 6.148 14.761C6.974 14.957 7.744 15.055 8.458 15.055C9.242 15.055 9.879 14.957 10.369 14.761C10.859 14.565 11.244 14.334 11.524 14.068C11.804 13.788 12 13.508 12.112 13.228C12.224 12.948 12.287 12.724 12.301 12.556C12.287 12.276 12.154 12.01 11.902 11.758C11.664 11.492 11.335 11.24 10.915 11.002C10.509 10.75 10.033 10.498 9.487 10.246C8.941 9.994 8.374 9.742 7.786 9.49C6.904 9.098 6.141 8.734 5.497 8.398C4.867 8.048 4.342 7.698 3.922 7.348C3.516 6.984 3.215 6.606 3.019 6.214C2.837 5.822 2.746 5.374 2.746 4.87C2.746 4.086 2.984 3.344 3.46 2.644C3.936 1.944 4.622 1.412 5.518 1.048C5.966 0.852 6.442 0.711999 6.946 0.627999C7.464 0.543999 7.968 0.501999 8.458 0.501999C9.382 0.501999 10.285 0.627999 11.167 0.879999C12.049 1.132 12.931 1.454 13.813 1.846ZM14.1756 15.58C14.2456 15.174 14.3646 14.642 14.5326 13.984C14.7146 13.312 14.9246 12.605 15.1626 11.863C15.4006 11.107 15.6526 10.351 15.9186 9.595C16.1846 8.839 16.4436 8.16 16.6956 7.558C16.8776 7.124 17.0386 6.788 17.1786 6.55C17.3186 6.298 17.4726 6.088 17.6406 5.92C17.8366 5.948 18.0396 5.997 18.2496 6.067C18.4596 6.137 18.6626 6.221 18.8586 6.319C19.0546 6.417 19.2296 6.522 19.3836 6.634C19.5376 6.732 19.6566 6.83 19.7406 6.928C19.3626 7.376 19.0266 7.887 18.7326 8.461C18.4526 9.035 18.1656 9.77 17.8716 10.666C18.6276 9.994 19.2926 9.35 19.8666 8.734C20.4546 8.118 21.0006 7.432 21.5046 6.676C21.5886 6.606 21.7356 6.571 21.9456 6.571C22.1416 6.571 22.3306 6.606 22.5126 6.676C22.6946 6.732 22.8206 6.816 22.8906 6.928C22.6386 7.6 22.5126 8.265 22.5126 8.923C22.5126 9.539 22.6036 10.001 22.7856 10.309C22.7716 10.393 22.6736 10.554 22.4916 10.792C22.3236 11.03 22.1346 11.254 21.9246 11.464C21.5466 11.268 21.2106 11.002 20.9166 10.666C20.6226 10.316 20.4056 9.938 20.2656 9.532C19.6076 9.994 19.0476 10.449 18.5856 10.897C18.1236 11.331 17.7246 11.821 17.3886 12.367C17.0666 12.899 16.7866 13.515 16.5486 14.215C16.3246 14.915 16.1076 15.748 15.8976 16.714C15.7716 16.7 15.6176 16.651 15.4356 16.567C15.2676 16.497 15.0926 16.406 14.9106 16.294C14.7426 16.182 14.5886 16.063 14.4486 15.937C14.3086 15.811 14.2176 15.692 14.1756 15.58ZM23.1703 14.593C23.1703 14.467 23.1773 14.313 23.1913 14.131C23.2193 13.935 23.2613 13.683 23.3173 13.375C23.3733 13.053 23.4433 12.668 23.5273 12.22C23.6253 11.772 23.7443 11.233 23.8843 10.603C23.9123 10.463 23.9753 10.239 24.0733 9.931C24.1713 9.623 24.2973 9.301 24.4513 8.965C24.6193 8.615 24.8153 8.279 25.0393 7.957C25.2773 7.635 25.5573 7.397 25.8793 7.243C26.1173 7.299 26.4323 7.446 26.8243 7.684C27.2163 7.908 27.5523 8.223 27.8323 8.629C27.5103 8.993 27.2373 9.357 27.0133 9.721C26.8033 10.085 26.6073 10.463 26.4253 10.855C26.2573 11.247 26.0963 11.653 25.9423 12.073C25.8023 12.493 25.6413 12.934 25.4593 13.396C25.3053 13.788 25.1653 14.194 25.0393 14.614C24.9133 15.02 24.8433 15.377 24.8293 15.685C24.8293 15.937 24.8223 16.112 24.8083 16.21C24.8083 16.322 24.7733 16.378 24.7033 16.378C24.6473 16.378 24.5353 16.343 24.3673 16.273C24.1993 16.203 24.0243 16.098 23.8423 15.958C23.6743 15.804 23.5203 15.615 23.3803 15.391C23.2403 15.167 23.1703 14.901 23.1703 14.593ZM27.1813 5.479C27.1813 5.395 27.2023 5.269 27.2443 5.101C27.1743 5.031 27.1113 4.926 27.0553 4.786C27.0133 4.646 26.9923 4.52 26.9923 4.408C26.9923 4.282 27.0063 4.114 27.0343 3.904C27.0763 3.68 27.1253 3.442 27.1813 3.19C27.2373 2.938 27.3073 2.679 27.3913 2.413C27.4753 2.133 27.5593 1.881 27.6433 1.657C27.8113 1.657 28.0143 1.706 28.2523 1.804C28.5043 1.888 28.7563 2.007 29.0083 2.161C29.2603 2.301 29.4913 2.462 29.7013 2.644C29.9113 2.812 30.0723 2.973 30.1843 3.127C30.0303 3.281 29.8273 3.498 29.5753 3.778C29.3233 4.044 29.0783 4.331 28.8403 4.639C28.6023 4.933 28.3853 5.213 28.1893 5.479C27.9933 5.745 27.8673 5.934 27.8113 6.046C27.6433 6.018 27.4963 5.948 27.3703 5.836C27.2443 5.71 27.1813 5.591 27.1813 5.479ZM47.4801 4.429C47.4801 5.101 47.3261 5.738 47.0181 6.34C46.7241 6.928 46.3111 7.46 45.7791 7.936C45.2471 8.398 44.6241 8.79 43.9101 9.112C43.1961 9.434 42.4191 9.651 41.5791 9.763C41.7891 10.393 42.0411 11.044 42.3351 11.716C42.6431 12.374 42.9721 13.011 43.3221 13.627C43.6721 14.243 44.0361 14.81 44.4141 15.328C44.7921 15.846 45.1631 16.273 45.5271 16.609C45.4571 16.749 45.3521 16.889 45.2121 17.029C45.0861 17.169 44.9321 17.295 44.7501 17.407C44.5821 17.533 44.4001 17.631 44.2041 17.701C44.0221 17.785 43.8471 17.827 43.6791 17.827C43.3711 17.827 43.0771 17.68 42.7971 17.386C42.5171 17.092 42.2301 16.63 41.9361 16C41.6561 15.356 41.3551 14.53 41.0331 13.522C40.7251 12.5 40.3821 11.275 40.0041 9.847C39.8501 9.847 39.6961 9.847 39.5421 9.847C39.3881 9.847 39.2691 9.833 39.1851 9.805C39.0871 9.749 38.9821 9.651 38.8701 9.511C38.4921 10.323 38.1561 11.086 37.8621 11.8C37.5681 12.514 37.3021 13.207 37.0641 13.879C36.8401 14.537 36.6371 15.181 36.4551 15.811C36.2871 16.427 36.1401 17.057 36.0141 17.701C35.5381 17.589 35.1251 17.386 34.7751 17.092C34.4251 16.798 34.0961 16.385 33.7881 15.853C33.8441 15.727 33.9001 15.608 33.9561 15.496C34.0261 15.37 34.1101 15.202 34.2081 14.992C34.3061 14.768 34.4251 14.488 34.5651 14.152C34.7191 13.816 34.9151 13.368 35.1531 12.808C35.4051 12.248 35.6991 11.562 36.0351 10.75C36.3851 9.938 36.8051 8.951 37.2951 7.789C37.5191 7.271 37.7081 6.816 37.8621 6.424C38.0301 6.032 38.1771 5.661 38.3031 5.311C38.4291 4.947 38.5411 4.59 38.6391 4.24C38.7511 3.876 38.8631 3.463 38.9751 3.001C38.3311 3.225 37.7291 3.477 37.1691 3.757C36.6231 4.023 36.1681 4.31 35.8041 4.618C35.6781 4.534 35.5451 4.408 35.4051 4.24C35.2791 4.072 35.1601 3.89 35.0481 3.694C34.9361 3.484 34.8381 3.274 34.7541 3.064C34.6701 2.854 34.6211 2.665 34.6071 2.497C35.0271 2.217 35.5381 1.958 36.1401 1.72C36.7561 1.482 37.4071 1.279 38.0931 1.111C38.7791 0.928999 39.4791 0.788999 40.1931 0.690999C40.9071 0.592999 41.5721 0.543999 42.1881 0.543999C43.8681 0.543999 45.1701 0.893999 46.0941 1.594C47.0181 2.28 47.4801 3.225 47.4801 4.429ZM42.3561 2.665C42.2581 2.791 42.1041 3.043 41.8941 3.421C41.6841 3.799 41.4391 4.254 41.1591 4.786C40.8931 5.304 40.6061 5.871 40.2981 6.487C40.0041 7.103 39.7171 7.712 39.4371 8.314C40.4871 8.314 41.4531 8.216 42.3351 8.02C43.2171 7.824 43.9801 7.551 44.6241 7.201C45.2681 6.837 45.7651 6.417 46.1151 5.941C46.4791 5.451 46.6611 4.912 46.6611 4.324C46.6611 3.624 46.4091 3.092 45.9051 2.728C45.4011 2.35 44.6241 2.161 43.5741 2.161C43.3361 2.161 43.0981 2.175 42.8601 2.203C42.6221 2.217 42.3701 2.238 42.1041 2.266L42.3561 2.665ZM54.1218 7.516C54.2618 7.516 54.4228 7.544 54.6048 7.6C54.8008 7.642 54.9758 7.705 55.1298 7.789C55.2838 7.859 55.4098 7.936 55.5078 8.02C55.6198 8.104 55.6758 8.181 55.6758 8.251C55.3958 8.839 55.1368 9.434 54.8988 10.036C54.6608 10.624 54.4578 11.191 54.2898 11.737C54.1218 12.283 53.9888 12.794 53.8908 13.27C53.8068 13.746 53.7648 14.159 53.7648 14.509C53.7648 14.901 53.8068 15.23 53.8908 15.496C53.9748 15.748 54.1148 15.93 54.3108 16.042C54.1428 16.154 53.9258 16.245 53.6598 16.315C53.3938 16.385 53.1558 16.42 52.9458 16.42C52.1898 16.42 51.8118 15.902 51.8118 14.866C51.8118 14.068 52.0778 12.976 52.6098 11.59C52.3298 12.234 52.0078 12.843 51.6438 13.417C51.2798 13.977 50.9088 14.474 50.5308 14.908C50.1528 15.342 49.7678 15.699 49.3758 15.979C48.9978 16.245 48.6478 16.406 48.3258 16.462C47.8078 16.434 47.3878 16.189 47.0658 15.727C46.7438 15.251 46.5828 14.649 46.5828 13.921C46.5828 13.137 46.7508 12.311 47.0868 11.443C47.4228 10.575 47.8498 9.77 48.3678 9.028C48.8998 8.286 49.4738 7.67 50.0898 7.18C50.7058 6.676 51.3008 6.41 51.8748 6.382C52.0148 6.424 52.1688 6.508 52.3368 6.634C52.5188 6.76 52.6868 6.907 52.8408 7.075C53.0088 7.243 53.1488 7.418 53.2608 7.6C53.3728 7.768 53.4358 7.915 53.4498 8.041C52.8898 8.125 52.3088 8.398 51.7068 8.86C51.1188 9.322 50.5798 9.882 50.0898 10.54C49.6138 11.184 49.2218 11.877 48.9138 12.619C48.6058 13.361 48.4518 14.054 48.4518 14.698C48.4518 14.964 48.5498 15.132 48.7458 15.202C49.1518 15.118 49.6208 14.775 50.1528 14.173C50.6848 13.557 51.3288 12.612 52.0848 11.338C52.2248 11.086 52.3788 10.806 52.5468 10.498C52.7288 10.19 52.9108 9.868 53.0928 9.532C53.2748 9.196 53.4498 8.86 53.6178 8.524C53.7998 8.174 53.9678 7.838 54.1218 7.516ZM60.1431 5.815C60.5071 5.927 60.8501 6.179 61.1721 6.571C61.4941 6.949 61.7321 7.369 61.8861 7.831C61.7321 8.209 61.4941 8.664 61.1721 9.196C60.8501 9.728 60.5281 10.274 60.2061 10.834C59.8841 11.38 59.5901 11.905 59.3241 12.409C59.0721 12.899 58.9251 13.305 58.8831 13.627C59.1071 13.389 59.3521 13.116 59.6181 12.808C59.8981 12.486 60.1641 12.171 60.4161 11.863C60.6821 11.541 60.9271 11.254 61.1511 11.002C61.3751 10.736 61.5501 10.54 61.6761 10.414C61.9421 10.134 62.2571 9.812 62.6211 9.448C62.9851 9.07 63.3631 8.72 63.7551 8.398C64.1611 8.062 64.5671 7.782 64.9731 7.558C65.3791 7.32 65.7501 7.201 66.0861 7.201C66.4501 7.201 66.7511 7.327 66.9891 7.579C67.2411 7.817 67.4371 8.069 67.5771 8.335C67.5771 8.363 67.5211 8.405 67.4091 8.461C67.3111 8.503 67.1641 8.636 66.9681 8.86C66.7721 9.112 66.5481 9.462 66.2961 9.91C66.0581 10.344 65.8201 10.82 65.5821 11.338C65.3581 11.842 65.1691 12.36 65.0151 12.892C64.8611 13.424 64.7841 13.907 64.7841 14.341C64.7841 14.691 64.8261 14.915 64.9101 15.013C65.0081 15.111 65.1411 15.16 65.3091 15.16C65.4631 15.16 65.6241 15.125 65.7921 15.055C65.9601 14.985 66.0931 14.95 66.1911 14.95C66.2471 14.978 66.2891 15.041 66.3171 15.139C66.3591 15.223 66.3801 15.3 66.3801 15.37C66.2681 15.468 66.1351 15.566 65.9811 15.664C65.8271 15.762 65.6661 15.853 65.4981 15.937C65.3301 16.021 65.1621 16.091 64.9941 16.147C64.8401 16.203 64.7001 16.231 64.5741 16.231C64.1681 16.231 63.8321 16.168 63.5661 16.042C63.3141 15.93 63.1111 15.776 62.9571 15.58C62.8171 15.384 62.7191 15.153 62.6631 14.887C62.6071 14.607 62.5791 14.313 62.5791 14.005C62.5791 13.837 62.5931 13.648 62.6211 13.438C62.6491 13.228 62.7051 12.983 62.7891 12.703C62.8731 12.409 62.9921 12.066 63.1461 11.674C63.3001 11.268 63.4961 10.785 63.7341 10.225C63.7061 10.225 63.5171 10.323 63.1671 10.519C62.8171 10.715 62.4391 11.016 62.0331 11.422C61.3751 12.052 60.7801 12.675 60.2481 13.291C59.7301 13.907 59.1981 14.593 58.6521 15.349C58.3441 15.783 58.0711 16.147 57.8331 16.441C57.6091 16.749 57.4131 16.952 57.2451 17.05C56.9511 16.882 56.7341 16.644 56.5941 16.336C56.4541 16.042 56.3491 15.734 56.2791 15.412C56.2791 15.146 56.3141 14.81 56.3841 14.404C56.4681 13.998 56.5731 13.55 56.6991 13.06C56.8391 12.556 57.0071 12.031 57.2031 11.485C57.3991 10.939 57.6161 10.393 57.8541 9.847C58.3861 8.615 58.8691 7.649 59.3031 6.949C59.7511 6.249 60.0311 5.871 60.1431 5.815ZM68.5439 12.073C69.0619 10.001 69.5659 8.489 70.0559 7.537C70.5599 6.571 71.0849 6.088 71.6309 6.088C72.0229 6.088 72.4919 6.277 73.0379 6.655C72.5899 7.453 72.2399 8.118 71.9879 8.65C71.7499 9.168 71.5749 9.644 71.4629 10.078C71.2249 10.918 70.9729 11.793 70.7069 12.703C70.4409 13.599 70.1749 14.46 69.9089 15.286C69.6569 16.112 69.4189 16.854 69.1949 17.512C68.9849 18.184 68.8169 18.695 68.6909 19.045C68.3829 19.871 68.0749 20.571 67.7669 21.145C67.4729 21.719 67.1649 22.188 66.8429 22.552C66.5209 22.916 66.1849 23.182 65.8349 23.35C65.4709 23.518 65.0789 23.602 64.6589 23.602C64.3509 23.602 64.0499 23.567 63.7559 23.497C63.4479 23.441 63.1609 23.357 62.8949 23.245C62.6289 23.147 62.3909 23.021 62.1809 22.867C61.9709 22.713 61.8029 22.552 61.6769 22.384C61.6909 22.286 61.7399 22.188 61.8239 22.09C61.8939 22.006 61.9639 21.957 62.0339 21.943C62.2719 22.195 62.5239 22.377 62.7899 22.489C63.0419 22.601 63.3499 22.657 63.7139 22.657C64.1619 22.657 64.5609 22.524 64.9109 22.258C65.2469 21.992 65.5899 21.474 65.9399 20.704C66.2899 19.948 66.6679 18.877 67.0739 17.491C67.4799 16.119 67.9699 14.313 68.5439 12.073ZM71.9669 4.429C71.9669 4.359 71.9879 4.24 72.0299 4.072C71.8619 3.904 71.7779 3.666 71.7779 3.358C71.7779 3.232 71.7919 3.057 71.8199 2.833C71.8619 2.609 71.9109 2.371 71.9669 2.119C72.0369 1.853 72.1069 1.587 72.1769 1.321C72.2609 1.055 72.3449 0.823999 72.4289 0.627999C72.5969 0.627999 72.7999 0.676999 73.0379 0.774999C73.2899 0.858999 73.5419 0.977999 73.7939 1.132C74.0459 1.272 74.2769 1.433 74.4869 1.615C74.6969 1.783 74.8579 1.944 74.9699 2.098C74.8019 2.252 74.5919 2.469 74.3399 2.749C74.0879 3.029 73.8429 3.323 73.6049 3.631C73.3669 3.925 73.1499 4.205 72.9539 4.471C72.7579 4.723 72.6389 4.905 72.5969 5.017C72.4289 4.989 72.2819 4.919 72.1559 4.807C72.0299 4.681 71.9669 4.555 71.9669 4.429ZM80.2898 7.516C80.4298 7.516 80.5908 7.544 80.7728 7.6C80.9688 7.642 81.1438 7.705 81.2978 7.789C81.4518 7.859 81.5778 7.936 81.6758 8.02C81.7878 8.104 81.8438 8.181 81.8438 8.251C81.5638 8.839 81.3048 9.434 81.0668 10.036C80.8288 10.624 80.6258 11.191 80.4578 11.737C80.2898 12.283 80.1568 12.794 80.0588 13.27C79.9748 13.746 79.9328 14.159 79.9328 14.509C79.9328 14.901 79.9748 15.23 80.0588 15.496C80.1428 15.748 80.2828 15.93 80.4788 16.042C80.3108 16.154 80.0938 16.245 79.8278 16.315C79.5618 16.385 79.3238 16.42 79.1138 16.42C78.3578 16.42 77.9798 15.902 77.9798 14.866C77.9798 14.068 78.2458 12.976 78.7778 11.59C78.4978 12.234 78.1758 12.843 77.8118 13.417C77.4478 13.977 77.0768 14.474 76.6988 14.908C76.3208 15.342 75.9358 15.699 75.5438 15.979C75.1658 16.245 74.8158 16.406 74.4938 16.462C73.9758 16.434 73.5558 16.189 73.2338 15.727C72.9118 15.251 72.7508 14.649 72.7508 13.921C72.7508 13.137 72.9188 12.311 73.2548 11.443C73.5908 10.575 74.0178 9.77 74.5358 9.028C75.0678 8.286 75.6418 7.67 76.2578 7.18C76.8738 6.676 77.4688 6.41 78.0428 6.382C78.1828 6.424 78.3368 6.508 78.5048 6.634C78.6868 6.76 78.8548 6.907 79.0088 7.075C79.1768 7.243 79.3168 7.418 79.4288 7.6C79.5408 7.768 79.6038 7.915 79.6178 8.041C79.0578 8.125 78.4768 8.398 77.8748 8.86C77.2868 9.322 76.7478 9.882 76.2578 10.54C75.7818 11.184 75.3898 11.877 75.0818 12.619C74.7738 13.361 74.6198 14.054 74.6198 14.698C74.6198 14.964 74.7178 15.132 74.9138 15.202C75.3198 15.118 75.7888 14.775 76.3208 14.173C76.8528 13.557 77.4968 12.612 78.2528 11.338C78.3928 11.086 78.5468 10.806 78.7148 10.498C78.8968 10.19 79.0788 9.868 79.2608 9.532C79.4428 9.196 79.6178 8.86 79.7858 8.524C79.9678 8.174 80.1358 7.838 80.2898 7.516ZM86.3111 5.815C86.6751 5.927 87.0181 6.179 87.3401 6.571C87.6621 6.949 87.9001 7.369 88.0541 7.831C87.9001 8.209 87.6621 8.664 87.3401 9.196C87.0181 9.728 86.6961 10.274 86.3741 10.834C86.0521 11.38 85.7581 11.905 85.4921 12.409C85.2401 12.899 85.0931 13.305 85.0511 13.627C85.2751 13.389 85.5201 13.116 85.7861 12.808C86.0661 12.486 86.3321 12.171 86.5841 11.863C86.8501 11.541 87.0951 11.254 87.3191 11.002C87.5431 10.736 87.7181 10.54 87.8441 10.414C88.1101 10.134 88.4251 9.812 88.7891 9.448C89.1531 9.07 89.5311 8.72 89.9231 8.398C90.3291 8.062 90.7351 7.782 91.1411 7.558C91.5471 7.32 91.9181 7.201 92.2541 7.201C92.6181 7.201 92.9191 7.327 93.1571 7.579C93.4091 7.817 93.6051 8.069 93.7451 8.335C93.7451 8.363 93.6891 8.405 93.5771 8.461C93.4791 8.503 93.3321 8.636 93.1361 8.86C92.9401 9.112 92.7161 9.462 92.4641 9.91C92.2261 10.344 91.9881 10.82 91.7501 11.338C91.5261 11.842 91.3371 12.36 91.1831 12.892C91.0291 13.424 90.9521 13.907 90.9521 14.341C90.9521 14.691 90.9941 14.915 91.0781 15.013C91.1761 15.111 91.3091 15.16 91.4771 15.16C91.6311 15.16 91.7921 15.125 91.9601 15.055C92.1281 14.985 92.2611 14.95 92.3591 14.95C92.4151 14.978 92.4571 15.041 92.4851 15.139C92.5271 15.223 92.5481 15.3 92.5481 15.37C92.4361 15.468 92.3031 15.566 92.1491 15.664C91.9951 15.762 91.8341 15.853 91.6661 15.937C91.4981 16.021 91.3301 16.091 91.1621 16.147C91.0081 16.203 90.8681 16.231 90.7421 16.231C90.3361 16.231 90.0001 16.168 89.7341 16.042C89.4821 15.93 89.2791 15.776 89.1251 15.58C88.9851 15.384 88.8871 15.153 88.8311 14.887C88.7751 14.607 88.7471 14.313 88.7471 14.005C88.7471 13.837 88.7611 13.648 88.7891 13.438C88.8171 13.228 88.8731 12.983 88.9571 12.703C89.0411 12.409 89.1601 12.066 89.3141 11.674C89.4681 11.268 89.6641 10.785 89.9021 10.225C89.8741 10.225 89.6851 10.323 89.3351 10.519C88.9851 10.715 88.6071 11.016 88.2011 11.422C87.5431 12.052 86.9481 12.675 86.4161 13.291C85.8981 13.907 85.3661 14.593 84.8201 15.349C84.5121 15.783 84.2391 16.147 84.0011 16.441C83.7771 16.749 83.5811 16.952 83.4131 17.05C83.1191 16.882 82.9021 16.644 82.7621 16.336C82.6221 16.042 82.5171 15.734 82.4471 15.412C82.4471 15.146 82.4821 14.81 82.5521 14.404C82.6361 13.998 82.7411 13.55 82.8671 13.06C83.0071 12.556 83.1751 12.031 83.3711 11.485C83.5671 10.939 83.7841 10.393 84.0221 9.847C84.5541 8.615 85.0371 7.649 85.4711 6.949C85.9191 6.249 86.1991 5.871 86.3111 5.815ZM94.2709 14.593C94.2709 14.467 94.2779 14.313 94.2919 14.131C94.3199 13.935 94.3619 13.683 94.4179 13.375C94.4739 13.053 94.5439 12.668 94.6279 12.22C94.7259 11.772 94.8449 11.233 94.9849 10.603C95.0129 10.463 95.0759 10.239 95.1739 9.931C95.2719 9.623 95.3979 9.301 95.5519 8.965C95.7199 8.615 95.9159 8.279 96.1399 7.957C96.3779 7.635 96.6579 7.397 96.9799 7.243C97.2179 7.299 97.5329 7.446 97.9249 7.684C98.3169 7.908 98.6529 8.223 98.9329 8.629C98.6109 8.993 98.3379 9.357 98.1139 9.721C97.9039 10.085 97.7079 10.463 97.5259 10.855C97.3579 11.247 97.1969 11.653 97.0429 12.073C96.9029 12.493 96.7419 12.934 96.5599 13.396C96.4059 13.788 96.2659 14.194 96.1399 14.614C96.0139 15.02 95.9439 15.377 95.9299 15.685C95.9299 15.937 95.9229 16.112 95.9089 16.21C95.9089 16.322 95.8739 16.378 95.8039 16.378C95.7479 16.378 95.6359 16.343 95.4679 16.273C95.2999 16.203 95.1249 16.098 94.9429 15.958C94.7749 15.804 94.6209 15.615 94.4809 15.391C94.3409 15.167 94.2709 14.901 94.2709 14.593ZM98.2819 5.479C98.2819 5.395 98.3029 5.269 98.3449 5.101C98.2749 5.031 98.2119 4.926 98.1559 4.786C98.1139 4.646 98.0929 4.52 98.0929 4.408C98.0929 4.282 98.1069 4.114 98.1349 3.904C98.1769 3.68 98.2259 3.442 98.2819 3.19C98.3379 2.938 98.4079 2.679 98.4919 2.413C98.5759 2.133 98.6599 1.881 98.7439 1.657C98.9119 1.657 99.1149 1.706 99.3529 1.804C99.6049 1.888 99.8569 2.007 100.109 2.161C100.361 2.301 100.592 2.462 100.802 2.644C101.012 2.812 101.173 2.973 101.285 3.127C101.131 3.281 100.928 3.498 100.676 3.778C100.424 4.044 100.179 4.331 99.9409 4.639C99.7029 4.933 99.4859 5.213 99.2899 5.479C99.0939 5.745 98.9679 5.934 98.9119 6.046C98.7439 6.018 98.5969 5.948 98.4709 5.836C98.3449 5.71 98.2819 5.591 98.2819 5.479ZM117.993 1.846C118.035 2.084 118.063 2.252 118.077 2.35C118.105 2.434 118.119 2.553 118.119 2.707C118.119 3.169 118.014 3.603 117.804 4.009C117.608 4.401 117.335 4.681 116.985 4.849C116.705 4.471 116.362 4.149 115.956 3.883C115.55 3.603 115.102 3.379 114.612 3.211C114.136 3.029 113.639 2.896 113.121 2.812C112.603 2.728 112.099 2.686 111.609 2.686C111.119 2.686 110.657 2.728 110.223 2.812C109.803 2.882 109.425 2.987 109.089 3.127C108.767 3.253 108.508 3.414 108.312 3.61C108.13 3.806 108.039 4.03 108.039 4.282C108.081 4.59 108.27 4.905 108.606 5.227C108.942 5.535 109.355 5.843 109.845 6.151C110.335 6.445 110.874 6.739 111.462 7.033C112.064 7.327 112.652 7.607 113.226 7.873C113.94 8.209 114.556 8.524 115.074 8.818C115.592 9.098 116.019 9.413 116.355 9.763C116.691 10.099 116.943 10.484 117.111 10.918C117.279 11.352 117.363 11.877 117.363 12.493C117.363 13.207 117.244 13.879 117.006 14.509C116.768 15.125 116.418 15.664 115.956 16.126C115.508 16.588 114.962 16.945 114.318 17.197C113.674 17.463 112.953 17.596 112.155 17.596C111.371 17.596 110.524 17.477 109.614 17.239C108.704 17.001 107.85 16.672 107.052 16.252C106.268 15.846 105.61 15.377 105.078 14.845C104.56 14.299 104.301 13.725 104.301 13.123C104.301 12.843 104.378 12.486 104.532 12.052C104.7 11.618 104.994 11.163 105.414 10.687C105.456 11.107 105.68 11.604 106.086 12.178C106.506 12.752 107.129 13.284 107.955 13.774C108.725 14.222 109.516 14.551 110.328 14.761C111.154 14.957 111.924 15.055 112.638 15.055C113.422 15.055 114.059 14.957 114.549 14.761C115.039 14.565 115.424 14.334 115.704 14.068C115.984 13.788 116.18 13.508 116.292 13.228C116.404 12.948 116.467 12.724 116.481 12.556C116.467 12.276 116.334 12.01 116.082 11.758C115.844 11.492 115.515 11.24 115.095 11.002C114.689 10.75 114.213 10.498 113.667 10.246C113.121 9.994 112.554 9.742 111.966 9.49C111.084 9.098 110.321 8.734 109.677 8.398C109.047 8.048 108.522 7.698 108.102 7.348C107.696 6.984 107.395 6.606 107.199 6.214C107.017 5.822 106.926 5.374 106.926 4.87C106.926 4.086 107.164 3.344 107.64 2.644C108.116 1.944 108.802 1.412 109.698 1.048C110.146 0.852 110.622 0.711999 111.126 0.627999C111.644 0.543999 112.148 0.501999 112.638 0.501999C113.562 0.501999 114.465 0.627999 115.347 0.879999C116.229 1.132 117.111 1.454 117.993 1.846ZM118.355 15.58C118.425 15.174 118.544 14.642 118.712 13.984C118.894 13.312 119.104 12.605 119.342 11.863C119.58 11.107 119.832 10.351 120.098 9.595C120.364 8.839 120.623 8.16 120.875 7.558C121.057 7.124 121.218 6.788 121.358 6.55C121.498 6.298 121.652 6.088 121.82 5.92C122.016 5.948 122.219 5.997 122.429 6.067C122.639 6.137 122.842 6.221 123.038 6.319C123.234 6.417 123.409 6.522 123.563 6.634C123.717 6.732 123.836 6.83 123.92 6.928C123.542 7.376 123.206 7.887 122.912 8.461C122.632 9.035 122.345 9.77 122.051 10.666C122.807 9.994 123.472 9.35 124.046 8.734C124.634 8.118 125.18 7.432 125.684 6.676C125.768 6.606 125.915 6.571 126.125 6.571C126.321 6.571 126.51 6.606 126.692 6.676C126.874 6.732 127 6.816 127.07 6.928C126.818 7.6 126.692 8.265 126.692 8.923C126.692 9.539 126.783 10.001 126.965 10.309C126.951 10.393 126.853 10.554 126.671 10.792C126.503 11.03 126.314 11.254 126.104 11.464C125.726 11.268 125.39 11.002 125.096 10.666C124.802 10.316 124.585 9.938 124.445 9.532C123.787 9.994 123.227 10.449 122.765 10.897C122.303 11.331 121.904 11.821 121.568 12.367C121.246 12.899 120.966 13.515 120.728 14.215C120.504 14.915 120.287 15.748 120.077 16.714C119.951 16.7 119.797 16.651 119.615 16.567C119.447 16.497 119.272 16.406 119.09 16.294C118.922 16.182 118.768 16.063 118.628 15.937C118.488 15.811 118.397 15.692 118.355 15.58ZM127.35 14.593C127.35 14.467 127.357 14.313 127.371 14.131C127.399 13.935 127.441 13.683 127.497 13.375C127.553 13.053 127.623 12.668 127.707 12.22C127.805 11.772 127.924 11.233 128.064 10.603C128.092 10.463 128.155 10.239 128.253 9.931C128.351 9.623 128.477 9.301 128.631 8.965C128.799 8.615 128.995 8.279 129.219 7.957C129.457 7.635 129.737 7.397 130.059 7.243C130.297 7.299 130.612 7.446 131.004 7.684C131.396 7.908 131.732 8.223 132.012 8.629C131.69 8.993 131.417 9.357 131.193 9.721C130.983 10.085 130.787 10.463 130.605 10.855C130.437 11.247 130.276 11.653 130.122 12.073C129.982 12.493 129.821 12.934 129.639 13.396C129.485 13.788 129.345 14.194 129.219 14.614C129.093 15.02 129.023 15.377 129.009 15.685C129.009 15.937 129.002 16.112 128.988 16.21C128.988 16.322 128.953 16.378 128.883 16.378C128.827 16.378 128.715 16.343 128.547 16.273C128.379 16.203 128.204 16.098 128.022 15.958C127.854 15.804 127.7 15.615 127.56 15.391C127.42 15.167 127.35 14.901 127.35 14.593ZM131.361 5.479C131.361 5.395 131.382 5.269 131.424 5.101C131.354 5.031 131.291 4.926 131.235 4.786C131.193 4.646 131.172 4.52 131.172 4.408C131.172 4.282 131.186 4.114 131.214 3.904C131.256 3.68 131.305 3.442 131.361 3.19C131.417 2.938 131.487 2.679 131.571 2.413C131.655 2.133 131.739 1.881 131.823 1.657C131.991 1.657 132.194 1.706 132.432 1.804C132.684 1.888 132.936 2.007 133.188 2.161C133.44 2.301 133.671 2.462 133.881 2.644C134.091 2.812 134.252 2.973 134.364 3.127C134.21 3.281 134.007 3.498 133.755 3.778C133.503 4.044 133.258 4.331 133.02 4.639C132.782 4.933 132.565 5.213 132.369 5.479C132.173 5.745 132.047 5.934 131.991 6.046C131.823 6.018 131.676 5.948 131.55 5.836C131.424 5.71 131.361 5.591 131.361 5.479ZM135.694 5.815C136.058 5.927 136.401 6.179 136.723 6.571C137.045 6.949 137.283 7.369 137.437 7.831C137.283 8.209 137.045 8.664 136.723 9.196C136.401 9.728 136.079 10.274 135.757 10.834C135.435 11.38 135.141 11.905 134.875 12.409C134.623 12.899 134.476 13.305 134.434 13.627C134.658 13.389 134.903 13.116 135.169 12.808C135.449 12.486 135.715 12.171 135.967 11.863C136.233 11.541 136.478 11.254 136.702 11.002C136.926 10.736 137.101 10.54 137.227 10.414C137.493 10.134 137.808 9.812 138.172 9.448C138.536 9.07 138.914 8.72 139.306 8.398C139.712 8.062 140.118 7.782 140.524 7.558C140.93 7.32 141.301 7.201 141.637 7.201C142.001 7.201 142.302 7.327 142.54 7.579C142.792 7.817 142.988 8.069 143.128 8.335C143.128 8.363 143.072 8.405 142.96 8.461C142.862 8.503 142.715 8.636 142.519 8.86C142.323 9.112 142.099 9.462 141.847 9.91C141.609 10.344 141.371 10.82 141.133 11.338C140.909 11.842 140.72 12.36 140.566 12.892C140.412 13.424 140.335 13.907 140.335 14.341C140.335 14.691 140.377 14.915 140.461 15.013C140.559 15.111 140.692 15.16 140.86 15.16C141.014 15.16 141.175 15.125 141.343 15.055C141.511 14.985 141.644 14.95 141.742 14.95C141.798 14.978 141.84 15.041 141.868 15.139C141.91 15.223 141.931 15.3 141.931 15.37C141.819 15.468 141.686 15.566 141.532 15.664C141.378 15.762 141.217 15.853 141.049 15.937C140.881 16.021 140.713 16.091 140.545 16.147C140.391 16.203 140.251 16.231 140.125 16.231C139.719 16.231 139.383 16.168 139.117 16.042C138.865 15.93 138.662 15.776 138.508 15.58C138.368 15.384 138.27 15.153 138.214 14.887C138.158 14.607 138.13 14.313 138.13 14.005C138.13 13.837 138.144 13.648 138.172 13.438C138.2 13.228 138.256 12.983 138.34 12.703C138.424 12.409 138.543 12.066 138.697 11.674C138.851 11.268 139.047 10.785 139.285 10.225C139.257 10.225 139.068 10.323 138.718 10.519C138.368 10.715 137.99 11.016 137.584 11.422C136.926 12.052 136.331 12.675 135.799 13.291C135.281 13.907 134.749 14.593 134.203 15.349C133.895 15.783 133.622 16.147 133.384 16.441C133.16 16.749 132.964 16.952 132.796 17.05C132.502 16.882 132.285 16.644 132.145 16.336C132.005 16.042 131.9 15.734 131.83 15.412C131.83 15.146 131.865 14.81 131.935 14.404C132.019 13.998 132.124 13.55 132.25 13.06C132.39 12.556 132.558 12.031 132.754 11.485C132.95 10.939 133.167 10.393 133.405 9.847C133.937 8.615 134.42 7.649 134.854 6.949C135.302 6.249 135.582 5.871 135.694 5.815ZM143.654 14.593C143.654 14.467 143.661 14.313 143.675 14.131C143.703 13.935 143.745 13.683 143.801 13.375C143.857 13.053 143.927 12.668 144.011 12.22C144.109 11.772 144.228 11.233 144.368 10.603C144.396 10.463 144.459 10.239 144.557 9.931C144.655 9.623 144.781 9.301 144.935 8.965C145.103 8.615 145.299 8.279 145.523 7.957C145.761 7.635 146.041 7.397 146.363 7.243C146.601 7.299 146.916 7.446 147.308 7.684C147.7 7.908 148.036 8.223 148.316 8.629C147.994 8.993 147.721 9.357 147.497 9.721C147.287 10.085 147.091 10.463 146.909 10.855C146.741 11.247 146.58 11.653 146.426 12.073C146.286 12.493 146.125 12.934 145.943 13.396C145.789 13.788 145.649 14.194 145.523 14.614C145.397 15.02 145.327 15.377 145.313 15.685C145.313 15.937 145.306 16.112 145.292 16.21C145.292 16.322 145.257 16.378 145.187 16.378C145.131 16.378 145.019 16.343 144.851 16.273C144.683 16.203 144.508 16.098 144.326 15.958C144.158 15.804 144.004 15.615 143.864 15.391C143.724 15.167 143.654 14.901 143.654 14.593ZM147.665 5.479C147.665 5.395 147.686 5.269 147.728 5.101C147.658 5.031 147.595 4.926 147.539 4.786C147.497 4.646 147.476 4.52 147.476 4.408C147.476 4.282 147.49 4.114 147.518 3.904C147.56 3.68 147.609 3.442 147.665 3.19C147.721 2.938 147.791 2.679 147.875 2.413C147.959 2.133 148.043 1.881 148.127 1.657C148.295 1.657 148.498 1.706 148.736 1.804C148.988 1.888 149.24 2.007 149.492 2.161C149.744 2.301 149.975 2.462 150.185 2.644C150.395 2.812 150.556 2.973 150.668 3.127C150.514 3.281 150.311 3.498 150.059 3.778C149.807 4.044 149.562 4.331 149.324 4.639C149.086 4.933 148.869 5.213 148.673 5.479C148.477 5.745 148.351 5.934 148.295 6.046C148.127 6.018 147.98 5.948 147.854 5.836C147.728 5.71 147.665 5.591 147.665 5.479ZM149.751 8.566C149.751 8.314 149.765 8.076 149.793 7.852C149.835 7.628 149.912 7.439 150.024 7.285C150.136 7.117 150.29 6.991 150.486 6.907C150.682 6.809 150.941 6.76 151.263 6.76C151.459 6.76 151.676 6.781 151.914 6.823C152.166 6.865 152.348 6.942 152.46 7.054C152.404 7.292 152.355 7.502 152.313 7.684C152.285 7.866 152.257 8.069 152.229 8.293C152.215 8.503 152.201 8.762 152.187 9.07C152.173 9.364 152.159 9.749 152.145 10.225C152.117 11.177 152.068 12.031 151.998 12.787C151.942 13.529 151.802 14.271 151.578 15.013C151.578 15.069 151.599 15.097 151.641 15.097C151.851 14.943 152.089 14.719 152.355 14.425C152.621 14.131 152.901 13.802 153.195 13.438C153.489 13.06 153.783 12.661 154.077 12.241C154.371 11.821 154.644 11.408 154.896 11.002C155.232 10.414 155.603 9.679 156.009 8.797C156.415 7.915 156.751 6.97 157.017 5.962C157.101 5.962 157.206 5.983 157.332 6.025C157.472 6.053 157.605 6.095 157.731 6.151C157.871 6.193 157.99 6.242 158.088 6.298C158.2 6.354 158.277 6.403 158.319 6.445C158.291 7.047 158.144 7.663 157.878 8.293C157.626 8.923 157.318 9.532 156.954 10.12C156.59 10.708 156.205 11.261 155.799 11.779C155.393 12.297 155.022 12.745 154.686 13.123C154.014 13.907 153.335 14.607 152.649 15.223C151.977 15.839 151.172 16.434 150.234 17.008C149.87 16.868 149.583 16.679 149.373 16.441C149.163 16.217 149.058 15.979 149.058 15.727C149.058 15.559 149.093 15.37 149.163 15.16C149.247 14.936 149.338 14.656 149.436 14.32C149.534 13.97 149.618 13.536 149.688 13.018C149.772 12.5 149.814 11.842 149.814 11.044C149.814 10.582 149.8 10.12 149.772 9.658C149.758 9.182 149.751 8.818 149.751 8.566ZM165.254 7.516C165.394 7.516 165.555 7.544 165.737 7.6C165.933 7.642 166.108 7.705 166.262 7.789C166.416 7.859 166.542 7.936 166.64 8.02C166.752 8.104 166.808 8.181 166.808 8.251C166.528 8.839 166.269 9.434 166.031 10.036C165.793 10.624 165.59 11.191 165.422 11.737C165.254 12.283 165.121 12.794 165.023 13.27C164.939 13.746 164.897 14.159 164.897 14.509C164.897 14.901 164.939 15.23 165.023 15.496C165.107 15.748 165.247 15.93 165.443 16.042C165.275 16.154 165.058 16.245 164.792 16.315C164.526 16.385 164.288 16.42 164.078 16.42C163.322 16.42 162.944 15.902 162.944 14.866C162.944 14.068 163.21 12.976 163.742 11.59C163.462 12.234 163.14 12.843 162.776 13.417C162.412 13.977 162.041 14.474 161.663 14.908C161.285 15.342 160.9 15.699 160.508 15.979C160.13 16.245 159.78 16.406 159.458 16.462C158.94 16.434 158.52 16.189 158.198 15.727C157.876 15.251 157.715 14.649 157.715 13.921C157.715 13.137 157.883 12.311 158.219 11.443C158.555 10.575 158.982 9.77 159.5 9.028C160.032 8.286 160.606 7.67 161.222 7.18C161.838 6.676 162.433 6.41 163.007 6.382C163.147 6.424 163.301 6.508 163.469 6.634C163.651 6.76 163.819 6.907 163.973 7.075C164.141 7.243 164.281 7.418 164.393 7.6C164.505 7.768 164.568 7.915 164.582 8.041C164.022 8.125 163.441 8.398 162.839 8.86C162.251 9.322 161.712 9.882 161.222 10.54C160.746 11.184 160.354 11.877 160.046 12.619C159.738 13.361 159.584 14.054 159.584 14.698C159.584 14.964 159.682 15.132 159.878 15.202C160.284 15.118 160.753 14.775 161.285 14.173C161.817 13.557 162.461 12.612 163.217 11.338C163.357 11.086 163.511 10.806 163.679 10.498C163.861 10.19 164.043 9.868 164.225 9.532C164.407 9.196 164.582 8.86 164.75 8.524C164.932 8.174 165.1 7.838 165.254 7.516ZM175.118 7.642C175.104 7.908 175.055 8.188 174.971 8.482C174.901 8.762 174.81 9.021 174.698 9.259C174.586 9.483 174.467 9.672 174.341 9.826C174.215 9.98 174.096 10.057 173.984 10.057C173.83 10.043 173.739 9.938 173.711 9.742C173.711 9.7 173.725 9.637 173.753 9.553C173.795 9.455 173.837 9.35 173.879 9.238C173.921 9.126 173.956 9.014 173.984 8.902C174.026 8.79 174.047 8.692 174.047 8.608C174.047 8.412 173.998 8.251 173.9 8.125C173.816 7.985 173.697 7.915 173.543 7.915C172.983 7.915 172.556 8.265 172.262 8.965C171.968 9.665 171.821 10.694 171.821 12.052C171.821 12.192 171.828 12.276 171.842 12.304C172.136 12.29 172.395 12.283 172.619 12.283C172.857 12.269 173.088 12.262 173.312 12.262C173.326 12.29 173.333 12.346 173.333 12.43C173.333 12.556 173.305 12.647 173.249 12.703C172.927 12.773 172.668 12.836 172.472 12.892C172.29 12.934 172.15 12.976 172.052 13.018C171.954 13.06 171.891 13.109 171.863 13.165C171.849 13.207 171.842 13.27 171.842 13.354C171.842 13.466 171.842 13.578 171.842 13.69C171.856 13.802 171.863 13.942 171.863 14.11C171.863 15.286 171.541 16.231 170.897 16.945C170.267 17.659 169.385 18.072 168.251 18.184C168.055 18.17 167.852 18.114 167.642 18.016C167.432 17.918 167.229 17.792 167.033 17.638C166.851 17.484 166.69 17.309 166.55 17.113C166.41 16.931 166.312 16.742 166.256 16.546C166.256 16.014 166.368 15.51 166.592 15.034C166.816 14.544 167.117 14.117 167.495 13.753C167.887 13.375 168.342 13.074 168.86 12.85C169.392 12.612 169.966 12.472 170.582 12.43C170.582 12.08 170.547 11.737 170.477 11.401C170.407 11.065 170.33 10.743 170.246 10.435C170.176 10.113 170.106 9.805 170.036 9.511C169.966 9.203 169.931 8.902 169.931 8.608C169.931 8.23 170.008 7.859 170.162 7.495C170.316 7.117 170.519 6.774 170.771 6.466C171.023 6.144 171.317 5.871 171.653 5.647C171.989 5.423 172.339 5.269 172.703 5.185C172.857 5.227 173.06 5.353 173.312 5.563C173.578 5.759 173.837 5.983 174.089 6.235C174.341 6.487 174.565 6.746 174.761 7.012C174.957 7.264 175.076 7.474 175.118 7.642ZM168.188 17.218C168.524 17.078 168.839 16.875 169.133 16.609C169.441 16.343 169.707 16.042 169.931 15.706C170.155 15.37 170.33 15.013 170.456 14.635C170.596 14.257 170.666 13.886 170.666 13.522C170.386 13.564 170.078 13.697 169.742 13.921C169.406 14.131 169.091 14.39 168.797 14.698C168.503 14.992 168.258 15.3 168.062 15.622C167.866 15.944 167.768 16.224 167.768 16.462C167.768 16.77 167.908 17.022 168.188 17.218ZM182.378 7.516C182.518 7.516 182.679 7.544 182.861 7.6C183.057 7.642 183.232 7.705 183.386 7.789C183.54 7.859 183.666 7.936 183.764 8.02C183.876 8.104 183.932 8.181 183.932 8.251C183.652 8.839 183.393 9.434 183.155 10.036C182.917 10.624 182.714 11.191 182.546 11.737C182.378 12.283 182.245 12.794 182.147 13.27C182.063 13.746 182.021 14.159 182.021 14.509C182.021 14.901 182.063 15.23 182.147 15.496C182.231 15.748 182.371 15.93 182.567 16.042C182.399 16.154 182.182 16.245 181.916 16.315C181.65 16.385 181.412 16.42 181.202 16.42C180.446 16.42 180.068 15.902 180.068 14.866C180.068 14.068 180.334 12.976 180.866 11.59C180.586 12.234 180.264 12.843 179.9 13.417C179.536 13.977 179.165 14.474 178.787 14.908C178.409 15.342 178.024 15.699 177.632 15.979C177.254 16.245 176.904 16.406 176.582 16.462C176.064 16.434 175.644 16.189 175.322 15.727C175 15.251 174.839 14.649 174.839 13.921C174.839 13.137 175.007 12.311 175.343 11.443C175.679 10.575 176.106 9.77 176.624 9.028C177.156 8.286 177.73 7.67 178.346 7.18C178.962 6.676 179.557 6.41 180.131 6.382C180.271 6.424 180.425 6.508 180.593 6.634C180.775 6.76 180.943 6.907 181.097 7.075C181.265 7.243 181.405 7.418 181.517 7.6C181.629 7.768 181.692 7.915 181.706 8.041C181.146 8.125 180.565 8.398 179.963 8.86C179.375 9.322 178.836 9.882 178.346 10.54C177.87 11.184 177.478 11.877 177.17 12.619C176.862 13.361 176.708 14.054 176.708 14.698C176.708 14.964 176.806 15.132 177.002 15.202C177.408 15.118 177.877 14.775 178.409 14.173C178.941 13.557 179.585 12.612 180.341 11.338C180.481 11.086 180.635 10.806 180.803 10.498C180.985 10.19 181.167 9.868 181.349 9.532C181.531 9.196 181.706 8.86 181.874 8.524C182.056 8.174 182.224 7.838 182.378 7.516ZM188.399 5.815C188.763 5.927 189.106 6.179 189.428 6.571C189.75 6.949 189.988 7.369 190.142 7.831C189.988 8.209 189.75 8.664 189.428 9.196C189.106 9.728 188.784 10.274 188.462 10.834C188.14 11.38 187.846 11.905 187.58 12.409C187.328 12.899 187.181 13.305 187.139 13.627C187.363 13.389 187.608 13.116 187.874 12.808C188.154 12.486 188.42 12.171 188.672 11.863C188.938 11.541 189.183 11.254 189.407 11.002C189.631 10.736 189.806 10.54 189.932 10.414C190.198 10.134 190.513 9.812 190.877 9.448C191.241 9.07 191.619 8.72 192.011 8.398C192.417 8.062 192.823 7.782 193.229 7.558C193.635 7.32 194.006 7.201 194.342 7.201C194.706 7.201 195.007 7.327 195.245 7.579C195.497 7.817 195.693 8.069 195.833 8.335C195.833 8.363 195.777 8.405 195.665 8.461C195.567 8.503 195.42 8.636 195.224 8.86C195.028 9.112 194.804 9.462 194.552 9.91C194.314 10.344 194.076 10.82 193.838 11.338C193.614 11.842 193.425 12.36 193.271 12.892C193.117 13.424 193.04 13.907 193.04 14.341C193.04 14.691 193.082 14.915 193.166 15.013C193.264 15.111 193.397 15.16 193.565 15.16C193.719 15.16 193.88 15.125 194.048 15.055C194.216 14.985 194.349 14.95 194.447 14.95C194.503 14.978 194.545 15.041 194.573 15.139C194.615 15.223 194.636 15.3 194.636 15.37C194.524 15.468 194.391 15.566 194.237 15.664C194.083 15.762 193.922 15.853 193.754 15.937C193.586 16.021 193.418 16.091 193.25 16.147C193.096 16.203 192.956 16.231 192.83 16.231C192.424 16.231 192.088 16.168 191.822 16.042C191.57 15.93 191.367 15.776 191.213 15.58C191.073 15.384 190.975 15.153 190.919 14.887C190.863 14.607 190.835 14.313 190.835 14.005C190.835 13.837 190.849 13.648 190.877 13.438C190.905 13.228 190.961 12.983 191.045 12.703C191.129 12.409 191.248 12.066 191.402 11.674C191.556 11.268 191.752 10.785 191.99 10.225C191.962 10.225 191.773 10.323 191.423 10.519C191.073 10.715 190.695 11.016 190.289 11.422C189.631 12.052 189.036 12.675 188.504 13.291C187.986 13.907 187.454 14.593 186.908 15.349C186.6 15.783 186.327 16.147 186.089 16.441C185.865 16.749 185.669 16.952 185.501 17.05C185.207 16.882 184.99 16.644 184.85 16.336C184.71 16.042 184.605 15.734 184.535 15.412C184.535 15.146 184.57 14.81 184.64 14.404C184.724 13.998 184.829 13.55 184.955 13.06C185.095 12.556 185.263 12.031 185.459 11.485C185.655 10.939 185.872 10.393 186.11 9.847C186.642 8.615 187.125 7.649 187.559 6.949C188.007 6.249 188.287 5.871 188.399 5.815Z" fill="black"/>
</svg>
